<svg xmlns="http://www.w3.org/2000/svg" width="105.63" height="105.642" viewBox="0 0 105.63 105.642">
    <defs>
        <linearGradient id="linear-gradient" x1=".314" x2=".66" y1=".989" y2="-.017" gradientUnits="objectBoundingBox">
            <stop offset=".276" stop-color="#f5bc9c"/>
            <stop offset="1" stop-color="#f0ae88"/>
        </linearGradient>
        <linearGradient id="linear-gradient-2" x1="-.028" x2="1.105" y1=".097" y2=".843" gradientUnits="objectBoundingBox">
            <stop offset="0" stop-color="#424250"/>
            <stop offset="1" stop-color="#373742"/>
        </linearGradient>
        <style>
            .cls-8{fill:#373742}
        </style>
    </defs>
    <g id="Woman_avatar" transform="translate(-127.619 -95.619)">
        <circle id="Ellipse_28" cx="52.5" cy="52.5" r="52.5" fill="#f0f0f0" transform="translate(128 96)"/>
        <g id="Group_1490" transform="translate(-59.354 6.939)">
            <g id="Group_1492" transform="translate(202.578 98.404)">
                <path id="Path_7073" fill="url(#linear-gradient)" d="M237.1 141.566v13.617l-6.958 9.689-5.35-7.332v-9.514l5.761-5.5 4.626-1.658z" transform="translate(-195.705 -88.901)"/>
                <path id="Path_7074" fill="#7e341c" d="M247.33 104.524h6.024s9.77 7.371 8.632 14.668c-.725 5.734-3.927 11.2 7.306 19.573 0 0-18.923-.08-19.74-8.03 0 0-.622-5.668-1.751-6.266s.183-10.171.129-10.334-3.975-8.713-3.975-8.713z" transform="translate(-192.198 -95.55)"/>
                <path id="Path_7075" fill="#f5bc9c" d="M217.245 107.176s14.627-1.5 24.685 1.912c0 0 2.16 6.316 4.239 15.542 0 0 9.392-4.571 9.891 2.659s-5.735 7.979-7.814 7.979l-.25 2.826s-8.892 13.547-20.28 17.121c0 0-10.056-4.737-15.044-11.469s-2.909-10.058.582-13.049-3.159-8.312-2.41-9.641 2.078-8.145 6.401-13.88z" transform="translate(-198.464 -95.125)"/>
                <path id="Path_7076" fill="#9c5724" d="M222.894 97.269s-5.32 7.314-6.815 11.72c0 0 16.124-.665 20.778.914l3.707.931c.2.066 4.439 15.608 4.439 15.608s9.254-4.562 9.891 2.659l3.739-7.065-7.563-20.778s.083-1.829-3.741-2.66-17.952-2.326-24.435-1.329z" transform="translate(-197.298 -96.938)"/>
                <path id="Path_7077" fill="url(#linear-gradient-2)" d="M216.832 103.418l-4.867 10.252s27.991.077 43.708 13.776l3.186-5.6s-9.559-16.271-42.027-18.428z" transform="translate(-198.051 -95.753)"/>
                <path id="Path_7078" fill="#424250" d="M273.322 168.259c-.438.426-.9.84-1.36 1.242a52.557 52.557 0 0 1-69.558-.426c-.757-.674-1.491-1.36-2.2-2.082 0 0 5.584-7.654 21.707-11.983 2.082-.568 4.341-1.076 6.778-1.5l.6.923 4.933 7.547.083.13.047-.059 6.625-8.139 1.159-1.42s2.035.26 4.519.639a75.035 75.035 0 0 1 7.583 1.431c3.561.994 12.386 5.56 17.508 10.824a6.79 6.79 0 0 1 1.576 2.873z" transform="translate(-200.203 -86.774)"/>
                <path id="Path_7079" d="M236.271 169.222l-7.29-6.885 9.855-11.917 6.088 7.338z" class="cls-8" transform="translate(-194.938 -87.153)"/>
                <path id="Path_7080" d="M223.64 168.888l7.29-6.888-6.35-9.762-6.254 2.064z" class="cls-8" transform="translate(-196.887 -86.82)"/>
            </g>
            <path id="Path_7081" fill="none" stroke="#f0f0f0" stroke-miterlimit="10" stroke-width="0.5px" d="M292.353 141.5a52.45 52.45 0 0 1-16.653 38.388c-.438.426-.9.84-1.36 1.242a52.557 52.557 0 0 1-69.559-.426c-.757-.674-1.491-1.36-2.2-2.082a52.565 52.565 0 1 1 89.772-37.122z"/>
        </g>
    </g>
</svg>
