<svg xmlns="http://www.w3.org/2000/svg" width="136.353" height="60.141" viewBox="0 0 136.353 60.141">
    <defs>
        <style>
            .cls-1{fill:#272732}
        </style>
    </defs>
    <g id="Group_1721" transform="translate(-103.811 -459.871)">
        <path id="Path_7146" d="M316.818 609.373v1.94c-.007.854.628.965 1.386.926a.5.5 0 0 1-.5.5h-3.463a.5.5 0 0 1-.5-.5c.757.019 1.333-.066 1.312-.926v-5.03c.027-.9-.5-1-1.281-.97a.529.529 0 0 1 .5-.528l1.145-.069a15.626 15.626 0 0 1 4.321.106c2.4.522 2.679 3.584.019 4.184.792.691 1.1 1.853 1.847 3.021a2.221 2.221 0 0 0 1.327.942.269.269 0 0 1-.115.522 6.433 6.433 0 0 1-2.6-.753c-.817-.578-1.087-1.837-1.725-2.662a5.248 5.248 0 0 0-.665-.7zm0-4.2v3.668c1.457.051 2.956-.137 2.928-1.834.003-1.639-1.311-1.907-2.928-1.836z" class="cls-1" transform="translate(-141.145 -97.321)"/>
        <path id="Path_7147" d="M378.594 609.8h-2.785l-.534 1.492q-.193.529-.019.74t1.026.211h.162v.5h-2.879a.5.5 0 0 1-.5-.5h.193a1.063 1.063 0 0 0 .827-.342 2.628 2.628 0 0 0 .423-.827l2.177-6.074-.137-.373h1.884l2.543 6.472a2.492 2.492 0 0 0 .448.8 1.233 1.233 0 0 0 .827.342.5.5 0 0 1-.5.5h-3.643v-.5h.448q.559 0 .7-.242a.863.863 0 0 0-.062-.727zm-.292-.7l-1.169-2.978-1.07 2.978z" class="cls-1" transform="translate(-181.027 -97.32)"/>
        <path id="Path_7148" d="M434.919 608.953v2.325q0 .949 1.007.949h.18a.5.5 0 0 1-.5.51h-3.158a.5.5 0 0 1-.5-.51h.23a.865.865 0 0 0 .982-.974v-5.126a1.049 1.049 0 0 0-.23-.771 1.077 1.077 0 0 0-.764-.223h-.218a.5.5 0 0 1 .5-.51h3.158a.5.5 0 0 1 .5.51h-.218a1.013 1.013 0 0 0-.768.226 1.245 1.245 0 0 0-.2.818v2.344a2.963 2.963 0 0 0 1.679-.987 7.274 7.274 0 0 0 .752-.923 2.208 2.208 0 0 0 .485-1.045q0-.433-.764-.433h-.137a.5.5 0 0 1 .5-.51h2.406a.5.5 0 0 1 .5.51 4.062 4.062 0 0 0-.752.089 1.376 1.376 0 0 0-.64.382 4.61 4.61 0 0 0-.466.592l-.522.745a5.718 5.718 0 0 1-1.113 1.229 5.127 5.127 0 0 1 1.293 1.318l.056.077 1.113 1.452a4.212 4.212 0 0 0 .827.859 1.86 1.86 0 0 0 1.107.35.5.5 0 0 1-.5.51h-3.345a.5.5 0 0 1-.5-.51q.889 0 .889-.35a4.972 4.972 0 0 0-1.088-1.49q-.485-.554-.883-.962a1.3 1.3 0 0 0-.898-.471z" class="cls-1" transform="translate(-220.619 -97.32)"/>
        <path id="Path_7149" d="M490.774 608.837a3.829 3.829 0 0 1 1.371-3.023 5.158 5.158 0 0 1 3.51-1.191 4.828 4.828 0 0 1 3.276 1.1 3.579 3.579 0 0 1 1.268 2.838 3.888 3.888 0 0 1-.765 2.364 4.237 4.237 0 0 1-2.027 1.481 6.114 6.114 0 0 1-4.314-.127 3.86 3.86 0 0 1-1.766-1.493 3.611 3.611 0 0 1-.553-1.949zm1.9-.6a4.606 4.606 0 0 0 .846 2.866 2.6 2.6 0 0 0 2.182 1.1 2.308 2.308 0 0 0 2.313-1.59 4.379 4.379 0 0 0 .286-1.608 4.582 4.582 0 0 0-.764-2.69 2.534 2.534 0 0 0-2.189-1.161 2.386 2.386 0 0 0-2.338 1.463 3.735 3.735 0 0 0-.334 1.621z" class="cls-1" transform="translate(-260.165 -97.32)"/>
        <g id="Group_1720" transform="translate(103.811 459.871)">
            <path id="Path_7150" d="M162.438 480.68a30.116 30.116 0 0 0-23.979-20.419l-.135-.112-.067.081a29.9 29.9 0 0 0-3.647-.313l-1.911-.046 1.477 1.214c.571.47 1.341 1.1 2 1.654l.508.42c4.893 4.054 10.051 9.889 10.548 13.817l.023.126a7.461 7.461 0 0 1-3.1 7.85 8.742 8.742 0 0 1-9.628.51l-3.328-2.008.81 3.8a40.3 40.3 0 0 1 .447 8.184 54.8 54.8 0 0 0 .817 11.979c-.023-.052-.046-.1-.068-.156a59.071 59.071 0 0 1-3.7-15.949 29.123 29.123 0 0 0-9.132-17.667l-.034-.029c-.105-.088-2.12-1.773-4.469-3.368l-.307-.2q-.407-.271-.822-.534c-.489-.314-.963-.611-1.369-.858l-.444-.27-.366.368a30.037 30.037 0 0 0 26.038 50.872c.032 0 .063-.01.094-.016a30.315 30.315 0 0 0 4.446-1.078 30.041 30.041 0 0 0 19.288-37.854zm-27.676 35.946a26.32 26.32 0 0 1-6.4-.552 26.673 26.673 0 0 1-14.847-43.347c2.342 1.545 4.544 3.374 4.636 3.45a25.571 25.571 0 0 1 8.01 15.487 63.415 63.415 0 0 0 3.952 16.929 44.864 44.864 0 0 0 3.789 6.8c.311.46.598.867.86 1.233zm5.144-.685a39.053 39.053 0 0 0-1.729-4.27c-2.435-5.356-2.389-11.118-2.349-16.2.016-2.052.031-4.007-.106-5.855a12.273 12.273 0 0 0 10.4-1.922 10.744 10.744 0 0 0 4.432-11.242c-.477-3.5-3.341-7.61-6.77-11.242q1.114.447 2.189.992a26.673 26.673 0 0 1-3.867 49.133c-.724.232-1.459.433-2.2.605z" class="cls-1" transform="translate(-103.811 -459.871)"/>
            <path id="Path_7151" d="M180.757 495.355a2.476 2.476 0 1 1-2.477 2.476 2.479 2.479 0 0 1 2.477-2.476m0-2.949a5.425 5.425 0 1 0 5.426 5.425 5.426 5.426 0 0 0-5.426-5.425z" class="cls-1" transform="translate(-151.896 -481.745)"/>
        </g>
        <g id="Group_1722" transform="translate(0 -4)">
            <path id="Path_7152" d="M361.345 510.4v-3.61h31q.043-1.676-.032-2.88t-.161-1.912a7.269 7.269 0 0 0-2.106-4.276 8.237 8.237 0 0 0-5.888-2.106 9.748 9.748 0 0 0-7.714 3.438 3.882 3.882 0 0 1-.143-5.516l10.974-11.438h5.458l-9.5 9.992a15.247 15.247 0 0 1 1.934-.129 11 11 0 0 1 11.3 10.035c.086.616.129 8.1.129 9.739a4.1 4.1 0 0 0-3.526-1.337z" class="cls-1" transform="translate(-173.146 -14.942)"/>
            <path id="Path_7153" d="M481.69 510.4v-26.99l4.19-1.311v28.3z" class="cls-1" transform="translate(-254.058 -14.942)"/>
            <path id="Path_7154" d="M469.308 528.957a13.418 13.418 0 0 0 6.683 1.676 5.542 5.542 0 0 0 4.212-1.6 6.078 6.078 0 0 0 1.526-4.373v-18.08l4.169-1.246v19.2a9.559 9.559 0 0 1-2.686 7.07 9.668 9.668 0 0 1-7.22 2.686 8.863 8.863 0 0 1-4.706-1.182z" class="cls-1" transform="translate(-245.732 -30.565)"/>
            <path id="Path_7155" d="M330.063 530a12.667 12.667 0 0 0 .358-1.624h.022a25.016 25.016 0 0 0 .391-3.61h-.005q.043-1.676.065-3.019t.022-2.353q0-10.293-8.4-10.293a7.88 7.88 0 0 0-6.833 3.266 11.877 11.877 0 0 0-1.934 7.027 8.848 8.848 0 0 0 2.234 6.339 9.143 9.143 0 0 0 6.833 2.643h3.439a5.773 5.773 0 0 1-1.666 3.363 4.885 4.885 0 0 1-3.492 1.429 15.7 15.7 0 0 1-6.919-1.526l1.848 4.04a9.7 9.7 0 0 0 5.157 1.139 8.57 8.57 0 0 0 6.382-2.557 9.472 9.472 0 0 0 2.443-4.074l.055-.19zm-3.38-5.234h-3.868q-4.878 0-4.878-5.372 0-6.64 4.577-6.64a3.576 3.576 0 0 1 3.653 2.192 12.577 12.577 0 0 1 .559 4.448z" class="cls-1" transform="translate(-141.145 -33.095)"/>
        </g>
    </g>
</svg>
